<?xml version="1.0" standalone="no"?>
<!DOCTYPE svg PUBLIC "-//W3C//DTD SVG 20010904//EN"
 "http://www.w3.org/TR/2001/REC-SVG-20010904/DTD/svg10.dtd">
<svg version="1.0" xmlns="http://www.w3.org/2000/svg"
 width="1898.000000pt" height="1898.000000pt" viewBox="0 0 1898.000000 1898.000000"
 preserveAspectRatio="xMidYMid meet">
<metadata>
Created by potrace 1.14, written by Peter Selinger 2001-2017
</metadata>
<g transform="translate(0.000000,1898.000000) scale(0.100000,-0.100000)"
fill="#000000" stroke="none">
<path d="M9062 11482 c-27 -8 -91 -69 -93 -88 -1 -8 -2 -17 -3 -21 -8 -33 -17
-71 -21 -88 -31 -149 -71 -337 -96 -449 -35 -157 -37 -167 -38 -182 -1 -8 -58
-12 -194 -11 -201 0 -217 -3 -266 -47 -33 -30 -37 -44 -76 -236 -2 -8 -22
-106 -45 -218 -41 -197 -41 -203 -24 -230 9 -15 24 -31 33 -37 9 -5 93 -11
186 -12 94 -1 181 -2 194 -2 20 -1 23 -5 17 -28 -13 -64 -47 -219 -50 -238 -3
-11 -16 -73 -30 -137 -14 -64 -28 -127 -30 -140 -3 -13 -7 -32 -9 -43 -3 -11
-8 -40 -12 -65 -3 -25 -9 -58 -11 -75 -12 -70 -6 -204 11 -295 18 -92 95 -221
176 -294 108 -97 292 -172 489 -200 19 -2 58 -8 85 -12 28 -4 198 -8 379 -9
304 -1 332 1 367 18 43 21 73 64 83 117 3 19 8 44 11 55 48 209 114 545 110
561 -2 12 -13 32 -24 45 -19 24 -20 24 -283 29 -295 6 -294 5 -330 78 -25 53
-23 82 27 307 20 88 37 169 39 180 18 86 29 131 37 139 5 6 132 9 296 9 261 0
291 1 325 18 40 20 74 62 82 100 2 13 9 44 15 69 5 25 12 56 15 70 2 14 10 50
16 80 7 30 13 66 15 80 2 14 11 54 19 90 8 36 17 76 19 90 3 14 8 41 12 60 8
44 -7 84 -40 106 -22 14 -62 16 -320 16 l-295 1 5 21 c13 55 34 154 39 176 5
26 20 96 30 140 3 14 10 48 16 75 6 28 12 59 14 70 3 11 17 77 32 147 23 110
25 131 14 158 -25 60 -27 60 -482 59 -227 -1 -423 -4 -436 -7z"/>
<path d="M4150 10674 c-207 -26 -345 -66 -525 -154 -264 -128 -472 -330 -609
-592 -39 -75 -113 -257 -121 -298 -2 -8 -10 -42 -19 -75 -69 -250 -78 -500
-26 -695 53 -201 188 -362 380 -453 72 -34 208 -82 260 -91 14 -2 41 -7 60
-10 19 -3 49 -9 65 -12 51 -10 426 -13 495 -3 36 5 81 11 100 13 105 15 252
55 374 103 273 108 513 297 614 485 46 84 50 121 18 153 l-25 25 -472 0 c-317
-1 -479 -4 -493 -12 -11 -5 -54 -35 -93 -65 -79 -60 -126 -74 -185 -54 -46 15
-71 60 -70 125 0 54 10 135 18 148 3 5 311 8 684 8 670 0 679 0 714 21 19 11
44 35 55 52 18 30 24 50 37 122 3 16 12 61 21 100 24 107 26 377 3 485 -79
380 -355 617 -785 675 -91 13 -368 12 -475 -1z m170 -629 c16 -9 37 -30 46
-47 18 -34 23 -120 11 -180 l-8 -38 -174 0 c-147 0 -175 2 -175 15 0 27 48
146 75 185 49 70 155 101 225 65z"/>
<path d="M11223 10675 c-82 -19 -161 -63 -228 -129 -70 -68 -102 -123 -126
-211 -43 -156 15 -291 151 -354 l55 -25 427 -1 c236 0 428 -1 428 -2 0 -1 -90
-76 -161 -133 -24 -19 -82 -66 -129 -105 -47 -38 -119 -97 -160 -130 -41 -33
-77 -62 -80 -65 -3 -3 -41 -35 -85 -70 -44 -35 -98 -79 -120 -97 -22 -19 -44
-37 -50 -41 -5 -4 -73 -59 -150 -122 -77 -63 -185 -151 -239 -195 -147 -118
-204 -178 -237 -250 -36 -76 -40 -92 -44 -173 -11 -240 236 -365 480 -242 51
25 276 204 850 675 22 18 119 97 215 175 96 78 186 152 200 164 14 11 45 37
69 56 l44 34 -7 -34 c-4 -19 -9 -42 -11 -50 -2 -8 -11 -49 -20 -90 -9 -41 -22
-100 -30 -130 -8 -30 -16 -67 -19 -83 -3 -15 -7 -35 -10 -45 -3 -9 -7 -28 -10
-42 -3 -14 -21 -97 -42 -185 -40 -174 -44 -239 -20 -313 25 -76 109 -153 179
-168 159 -32 292 10 412 130 101 101 118 144 190 476 3 14 72 314 80 350 17
76 25 110 30 139 3 19 8 38 11 42 2 4 9 29 14 56 5 26 12 57 14 68 3 11 11 49
19 85 8 36 29 126 46 201 18 75 33 145 36 155 13 61 58 253 70 300 42 163 -17
304 -154 368 -46 21 -53 21 -941 22 -653 1 -909 -2 -947 -11z"/>
<path d="M15198 10675 c-100 -17 -166 -39 -241 -82 -59 -33 -170 -109 -199
-135 -8 -7 -26 -23 -40 -36 l-26 -23 8 43 c24 128 20 154 -25 184 -22 15 -69
16 -434 17 -389 0 -411 -1 -448 -20 -21 -11 -46 -33 -55 -49 -14 -24 -43 -133
-61 -234 -3 -14 -12 -56 -21 -95 -10 -38 -19 -86 -22 -105 -3 -19 -14 -71 -24
-115 -11 -45 -21 -92 -23 -105 -3 -14 -8 -36 -11 -50 -3 -14 -8 -36 -10 -50
-2 -14 -16 -77 -30 -140 -14 -63 -27 -126 -30 -140 -2 -14 -9 -45 -15 -70 -5
-25 -12 -56 -15 -70 -2 -14 -9 -47 -15 -75 -6 -27 -13 -61 -16 -75 -2 -14 -7
-36 -10 -50 -3 -14 -7 -34 -9 -45 -3 -11 -16 -74 -31 -140 -14 -66 -35 -163
-46 -216 -10 -52 -22 -105 -24 -117 -18 -83 -34 -161 -41 -198 -3 -16 -9 -45
-15 -65 -9 -34 -100 -467 -123 -584 -3 -11 -14 -65 -26 -120 -12 -55 -24 -110
-26 -122 -6 -32 20 -89 47 -104 26 -13 858 -18 916 -5 29 7 103 74 103 94 0 4
11 61 25 126 14 65 27 127 29 139 2 12 25 117 50 232 25 116 48 226 51 245 3
19 10 51 15 70 5 19 11 49 14 65 3 17 8 43 12 58 l6 29 18 -30 c89 -145 292
-229 564 -230 478 -2 846 274 1040 780 56 148 121 396 150 583 3 17 7 44 10
60 54 339 -7 609 -175 772 -109 106 -210 154 -414 198 -59 13 -280 13 -357 0z
m-218 -811 c46 -28 62 -74 60 -179 -3 -199 -86 -460 -172 -542 -47 -46 -92
-61 -173 -61 -163 2 -198 73 -156 313 12 66 23 125 25 130 1 6 8 30 15 55 37
134 84 226 133 261 67 48 205 60 268 23z"/>
<path d="M5967 10642 c-38 -5 -86 -32 -109 -62 -10 -14 -29 -74 -42 -135 -13
-60 -36 -166 -51 -235 -15 -69 -29 -134 -31 -145 -3 -11 -8 -43 -11 -71 -6
-59 12 -97 55 -111 15 -5 197 -9 405 -9 207 1 377 -1 377 -4 0 -3 -12 -14 -27
-25 -14 -11 -97 -74 -184 -140 -86 -66 -273 -208 -414 -315 -371 -281 -402
-306 -429 -348 -17 -25 -36 -90 -61 -202 -20 -91 -43 -196 -51 -235 -33 -150
-37 -168 -36 -190 2 -30 21 -60 50 -77 24 -12 168 -14 1108 -14 l1081 1 37 29
c45 34 58 63 80 171 9 44 19 91 22 105 3 14 7 36 10 50 6 28 33 155 40 185 23
103 27 155 15 178 -26 49 -31 50 -491 49 -401 0 -430 1 -408 16 13 9 30 22 38
29 31 25 138 109 170 133 19 14 45 34 59 46 30 24 168 130 246 189 119 90 441
341 456 355 34 32 50 70 73 176 13 60 26 123 29 139 3 17 19 95 36 175 47 230
47 242 -4 276 -23 15 -108 17 -1018 18 -545 0 -1005 0 -1020 -2z"/>
</g>
</svg>
